<?xml version="1.0" standalone="no"?>
<!DOCTYPE svg PUBLIC "-//W3C//DTD SVG 1.1//EN" "http://www.w3.org/Graphics/SVG/1.1/DTD/svg11.dtd" >
<svg xmlns="http://www.w3.org/2000/svg">
<metadata>Generated by IcoMoon</metadata>
<defs>
<font id="icomoon" horiz-adv-x="1024">
<font-face units-per-em="1024" ascent="960" descent="-64" />
<missing-glyph horiz-adv-x="1024" />
<glyph unicode="&#x20;" horiz-adv-x="512" d="" />
<glyph unicode="&#xe600;" glyph-name="location" horiz-adv-x="640" d="M320 960c-177 0-320-143-320-320s160-416 320-704c160 288 320 527 320 704s-143 320-320 320zM320 512c-71 0-128 57-128 128s57 128 128 128 128-57 128-128-57-128-128-128z" />
<glyph unicode="&#xe602;" glyph-name="menu" d="M128 170.667h768v85.333h-768v-85.333zM128 384h768v85.333h-768v-85.333zM128 682.667v-85.333h768v85.333h-768z" />
<glyph unicode="&#xe603;" glyph-name="social-facebook" d="M554.667 512h128v-128h-128v-298.667h-128v298.667h-128v128h128v53.547c0 50.731 15.957 114.816 47.701 149.845 31.744 35.115 71.381 52.608 118.869 52.608h89.429v-128h-89.6c-21.248 0-38.4-17.152-38.4-38.357v-89.643z" />
<glyph unicode="&#xe604;" glyph-name="social-twitter" d="M805.973 639.488c34.475 21.163 57.301 50.048 68.48 86.784-33.536-17.792-66.944-29.995-100.309-36.736-29.995 32.256-67.968 48.64-113.493 48.64-44.501 0-82.091-15.616-112.768-45.995-30.507-30.592-45.909-67.755-45.909-111.147 0-13.184 1.664-24.96 4.992-34.944-131.243 4.48-239.872 58.923-325.461 163.712-14.507-25.643-21.76-51.755-21.76-78.763 0-55.509 23.424-99.499 70.187-131.797-26.667 2.261-50.176 9.003-70.187 20.053 0-39.637 11.648-72.747 34.987-101.888 23.424-28.843 53.504-47.232 90.24-55.083-13.312-3.413-27.349-5.035-41.771-5.035-13.312 0-22.741 1.109-28.331 3.541 9.813-32.299 28.331-58.496 55.083-78.549 26.667-20.139 57.344-30.763 91.819-31.701-56.832-44.587-121.813-66.645-195.328-66.645-18.005 0-30.763 0.256-38.485 1.621 72.405-47.019 153.003-70.357 242.176-70.357 91.264 0 171.904 23.125 242.091 69.376 70.187 45.995 121.984 102.741 155.264 169.557 33.451 66.731 50.005 136.192 50.005 208.725v19.968c32.341 24.32 58.496 51.712 78.507 81.963-29.013-12.501-59.008-20.992-90.027-25.301z" />
<glyph unicode="&#xe605;" glyph-name="close" d="M810.667 768q18.333 0 30.5-12.167t12.167-30.5q0-18-12.333-30.333l-268.667-268.333 268.667-268.333q12.333-12.333 12.333-30.333 0-18.333-12.167-30.5t-30.5-12.167q-18 0-30.333 12.333l-268.333 268.667-268.333-268.667q-12.333-12.333-30.333-12.333-18.333 0-30.5 12.167t-12.167 30.5q0 18 12.333 30.333l268.667 268.333-268.667 268.333q-12.333 12.333-12.333 30.333 0 18.333 12.167 30.5t30.5 12.167q18 0 30.333-12.333l268.333-268.667 268.333 268.667q12.333 12.333 30.333 12.333z" />
<glyph unicode="&#xe606;" glyph-name="arrow-right" d="M389.171 285.798c-13.722-13.875-13.722-36.301 0-50.125 13.67-13.875 35.891-13.875 49.613 0l196.096 200.038c13.722 13.875 13.722 36.301 0 50.125l-196.096 200.090c-13.722 13.875-35.891 13.875-49.613 0s-13.722-36.25-0.051-50.074l160.819-175.053-160.768-175.002z" />
<glyph unicode="&#xe607;" glyph-name="arrow-left" d="M634.829 285.798c13.722-13.875 13.722-36.301 0-50.125-13.722-13.875-35.891-13.875-49.613 0l-196.096 200.038c-13.722 13.875-13.722 36.301 0 50.125l196.096 200.090c13.722 13.875 35.891 13.875 49.613 0s13.722-36.25 0-50.125l-160.768-175.002 160.768-175.002z" />
<glyph unicode="&#xe608;" glyph-name="arrow-down" d="M687.002 583.629c13.875 13.722 36.301 13.722 50.125 0 13.875-13.722 13.875-35.891 0-49.613l-200.038-196.096c-13.875-13.722-36.301-13.722-50.125 0l-200.090 196.096c-13.824 13.722-13.824 35.891 0 49.613 13.875 13.722 36.25 13.722 50.125 0l175.002-160.768 175.002 160.768z" />
<glyph unicode="&#xe609;" glyph-name="arrow-up" d="M336.947 337.971c-13.875-13.722-36.25-13.722-50.125 0-13.824 13.722-13.875 35.891 0 49.664l200.090 195.994c13.875 13.722 36.301 13.722 50.125 0l200.090-196.045c13.875-13.773 13.875-35.942 0-49.664s-36.25-13.722-50.125 0l-175.053 160.819-175.002-160.768z" />
<glyph unicode="&#xe612;" glyph-name="search" d="M1000.64 70.848l-184.896 184.896c50.688 72.576 80.64 160.704 80.64 255.936 0 247.424-200.64 448-448 448s-448-200.576-448-448c0-247.424 200.576-448 448-448 95.232 0 183.424 29.952 256 80.64l184.896-184.896c30.72-30.72 80.64-30.72 111.36 0s30.72 80.576 0 111.424zM448.32 191.616c-176.704 0-320 143.232-320 320s143.296 320 320 320c176.768 0 320-143.232 320-320 0.064-176.768-143.168-320-320-320z" />
<glyph unicode="&#xe61d;" glyph-name="envelope" d="M0 149.334c0-47.146 38.186-85.334 85.334-85.334h853.334c47.146 0 85.334 38.186 85.334 85.334l-0.002 576c0 47.146-38.186 85.334-85.334 85.334l-853.332-0.002c-47.146 0-85.334-38.186-85.334-85.334v-575.998zM314.026 436.694l-195.2 196.48c-16.192 16.214-16.192 42.454 0 58.666 16.234 16.214 42.474 16.214 58.666 0l311.468-311.872c12.586-12.374 33.302-12.374 45.674 0l311.872 311.872c16.214 16.214 42.454 16.214 58.666 0 16.214-16.214 16.214-42.454 0-58.666l-195.414-196.48 195.414-195.178c16.214-16.214 16.214-42.454 0-58.666s-42.454-16.214-58.666 0l-195.2 194.986c0 0-60.992-62.080-72.086-73.174-17.3-16.876-41.194-27.328-67.22-27.328-26.454 0-50.346 10.666-67.626 27.968-11.306 11.094-71.894 72.512-71.894 72.512l-195.008-194.986c-16.192-16.214-42.432-16.214-58.666 0-16.192 16.214-16.192 42.454 0 58.666l195.22 195.2z" />
<glyph unicode="&#xe900;" glyph-name="iconobusqueda" d="M431.514 96.563c-238.343 0.117-431.514 193.359-431.514 431.718 0 238.431 193.287 431.718 431.718 431.718 238.359 0 431.602-193.17 431.718-431.502 0.003-0.621 0.005-1.344 0.005-2.066 0-118.672-48.225-226.081-126.148-303.698l-0.014-0.014c-77.63-77.936-185.039-126.162-303.712-126.162-0.722 0-1.444 0.002-2.166 0.005zM431.514 883.814c-0.004 0-0.010 0-0.015 0-196.355 0-355.533-159.177-355.533-355.533s159.177-355.533 355.533-355.533c98.232 0 187.16 39.839 251.507 104.24l0.003 0.003c64.395 64.348 104.228 153.27 104.228 251.494 0 196.355-159.177 355.533-355.533 355.533-0.067 0-0.134 0-0.2 0zM683.084 223.091l53.717 53.736 287.219-287.119-53.717-53.736-287.219 287.119z" />
<glyph unicode="&#xe901;" glyph-name="iconocalendar" d="M1005.568 960h-987.136c-10.18 0-18.432-8.252-18.432-18.432v-987.136c0-10.18 8.252-18.432 18.432-18.432h987.136c10.18 0 18.432 8.252 18.432 18.432v987.136c0 10.18-8.252 18.432-18.432 18.432zM987.136-27.136h-950.272v950.272h950.272v-950.272zM164.864 759.296h695.296v-36.864h-695.296v36.864zM859.136 612.864h-694.272v-530.432h694.272v530.432zM328.704 119.296h-123.904v123.904h123.904v-123.904zM328.704 284.16h-123.904v126.976h123.904v-128zM328.704 448h-123.904v128h123.904v-128zM493.568 119.296h-128v123.904h128v-123.904zM493.568 284.16h-128v126.976h128v-128zM493.568 448h-128v128h128v-128zM658.432 119.296h-128v123.904h128v-123.904zM658.432 284.16h-128v126.976h128v-128zM658.432 448h-128v128h128v-128zM819.2 119.296h-123.904v123.904h123.904v-123.904zM819.2 283.136h-123.904v128h123.904v-128zM819.2 448h-123.904v128h123.904v-128z" />
<glyph unicode="&#xe902;" glyph-name="iconofacebook" horiz-adv-x="450" d="M282.419-64h-145.818l-4.096 512h-132.71v139.059h132.301v133.53c0 148.685 28.672 239.411 204.8 239.411h113.459v-170.394h-102.4c-68.198 0-76.186-26.010-76.186-73.728v-130.048h168.755l-8.397-137.216h-149.504v-512.614z" />
<glyph unicode="&#xe903;" glyph-name="iconoflecha" d="M511.795 202.035l511.795 352.87-95.642 138.854-416.154-286.72-416.154 286.72-95.642-138.854 511.795-352.87z" />
<glyph unicode="&#xe904;" glyph-name="iconoinstagram" d="M512 960c-140.698 0-159.13 0-214.426-3.072-44.389-1.024-86.479-9.574-125.465-24.416-32.613-12.387-62.622-32.191-87.29-57.266-24.976-24.528-44.694-54.252-57.423-87.438-14.549-38.085-23.099-80.175-24.111-124.127-3.285-56.551-3.285-74.983-3.285-215.681s0-159.13 3.072-214.426c1.024-44.389 9.574-86.479 24.416-125.465 12.432-32.285 32.151-62.008 57.057-86.467 24.532-24.979 54.255-44.698 87.442-57.427 38.085-14.545 80.174-23.095 124.125-24.111 56.963-4.104 75.395-4.104 215.888-4.104s158.925 0 214.426 3.072c44.389 1.024 86.479 9.574 125.465 24.416 65.26 25.846 117.956 78.543 144.060 144.644 14.585 38.144 23.134 80.233 24.151 124.185 3.899 56.553 3.899 74.985 3.899 215.683s0 159.13-3.072 214.426c-1.024 44.389-9.574 86.479-24.416 125.465-12.432 32.285-32.151 62.008-57.057 86.467-24.532 24.979-54.255 44.698-87.442 57.427-38.085 14.545-80.174 23.095-124.125 24.111-56.758 4.104-75.19 4.104-215.888 4.104zM512 11.571c-139.469 0-155.853 0-210.944 3.072-35.942 0.483-70.153 7.277-101.776 19.318-22.693 8.58-43.762 22.538-61.004 40.241-17.777 17.315-31.734 38.384-40.609 61.945-11.747 30.755-18.54 64.967-19.022 100.702-2.46 55.298-3.074 71.886-3.074 211.15s0 155.853 3.072 210.944c0.483 35.942 7.277 70.153 19.318 101.776 8.58 22.693 22.538 43.762 40.241 61.004 17.315 17.777 38.384 31.734 61.945 40.609 30.755 11.747 64.967 18.54 100.702 19.022 55.298 2.46 71.886 3.074 211.15 3.074s155.853 0 210.944-3.072c35.942-0.483 70.153-7.277 101.776-19.318 22.693-8.58 43.762-22.538 61.004-40.241 17.777-17.315 31.734-38.384 40.609-61.945 11.747-30.755 18.54-64.967 19.022-100.702 2.46-55.298 3.074-71.886 3.074-211.15s0-155.853-3.072-210.944c-0.483-35.942-7.277-70.153-19.318-101.776-18.181-45.902-55.416-83.137-102.126-101.572-30.816-11.784-65.027-18.577-100.761-19.063-55.299-2.46-71.683-3.074-211.152-3.074zM512 706.458c-142.742 0-258.458-115.715-258.458-258.458s115.715-258.458 258.458-258.458c142.742 0 258.458 115.715 258.458 258.458-0.233 142.648-115.809 258.225-258.435 258.458zM512 265.114c-101.005 0-182.886 81.881-182.886 182.886s81.881 182.886 182.886 182.886c101.005 0 182.886-81.881 182.886-182.886-0.117-100.959-81.928-182.77-182.875-182.886zM790.118 779.571c-29.521 0-53.453-23.932-53.453-53.453s23.932-53.453 53.453-53.453c29.521 0 53.453 23.932 53.453 53.453s-23.932 53.453-53.453 53.453z" />
<glyph unicode="&#xe905;" glyph-name="iconomapa" horiz-adv-x="825" d="M412.262-64c-13.065 0.017-25.025 4.737-34.28 12.558-204.107 169.305-297.7 325.362-340.299 426.329-11.038 23.339-20.542 50.675-27.107 79.135-1.562 6.451-2.562 11.159-3.31 15.95-4.691 23.871-7.319 50.441-7.319 77.625 0 222.674 176.363 404.155 397.025 412.381l0.75 0.022c5.193 0.238 11.282 0.374 17.402 0.374 110.583 0 210.817-44.31 283.917-116.143 77.63-74.603 125.896-179.384 125.896-295.438 0-0.443-0.001-0.887-0.002-1.33-0.075-27.944-2.904-55.25-8.232-81.651l-2.213-10.235c-6.984-31.157-16.564-58.501-28.873-84.294-41.374-97.364-135.377-253.626-339.358-422.996-9.162-7.611-21.034-12.244-33.987-12.288zM412.262 920.883h-13.312c-187.651-7.211-339.434-151.565-358.268-335.303-1.267-12.588-1.915-25.35-1.915-38.264 0-25.058 2.438-49.547 7.090-73.243 0.268-1.897 1.124-5.63 2.22-9.258 6.278-27.868 15.010-52.815 26.188-76.376 40.013-95.472 130.74-245.59 328.577-410.25 2.52-2.154 5.817-3.465 9.421-3.465s6.901 1.311 9.441 3.481c197.817 163.823 288.338 314.761 329.503 412.041 10.3 21.316 19.035 46.198 24.938 72.157l2.915 14.064c4.298 21.291 6.758 45.765 6.758 70.814 0 0.016 0 0.033 0 0.049 0 0.119 0 0.263 0 0.407 0 206.083-167.063 373.146-373.146 373.146-0.144 0-0.288 0-0.433 0zM412.262 724.89c-108.357 0-196.198-87.841-196.198-196.198s87.841-196.198 196.198-196.198c108.357 0 196.198 87.841 196.198 196.198s-87.841 196.198-196.198 196.198zM412.262 368.947c-88.337 0-159.949 71.612-159.949 159.949s71.612 159.949 159.949 159.949c88.337 0 159.949-71.612 159.949-159.949-0.116-88.29-71.658-159.832-159.938-159.949z" />
<glyph unicode="&#xe906;" glyph-name="iconoreloj" d="M512 960c-282.77 0-512-229.23-512-512s229.23-512 512-512c282.77 0 512 229.23 512 512s-229.23 512-512 512zM983.040 448c0-260.713-211.351-472.063-472.064-472.063s-472.064 211.35-472.064 472.064c0 260.714 211.35 472.064 472.064 472.064 0.36 0 0.72 0 1.080-0.001 260.217-0.583 470.984-211.709 470.984-472.063 0 0 0-0.001 0-0.001zM512 852.48c-11.311 0-20.48-9.169-20.48-20.48v-384h-245.76c-9.189-2.148-15.929-10.271-15.929-19.968s6.74-17.82 15.791-19.941l266.379-0.027c11.311 0 20.48 9.169 20.48 20.48v409.6c-2.688 8.39-10.419 14.357-19.543 14.357-0.329 0-0.657-0.008-0.983-0.023z" />
<glyph unicode="&#xe907;" glyph-name="iconostreaming" d="M20.48 867.84c-11.311 0-20.48-9.169-20.48-20.48v-655.36c0-11.311 9.169-20.48 20.48-20.48h983.040c11.311 0 20.48 9.169 20.48 20.48v655.36c0 11.311-9.169 20.48-20.48 20.48h-983.040zM951.091 244.634h-878.182v550.298h878.182v-550.298zM141.517 101.069h740.966v-70.042h-740.966v70.042zM674.816 515.379l-247.194-123.699v247.194l247.194-123.494z" />
<glyph unicode="&#xe908;" glyph-name="iconotwitter" d="M919.347 660.787c0-9.011 0-18.022 0-27.238 0-277.504-211.354-597.606-597.811-597.606-0.165 0-0.359 0-0.554 0-119.229 0-230.252 35.133-323.282 95.611 17.504-3.342 35.092-4.449 52.94-4.449 98.68 0 189.454 33.846 261.347 90.563-92.438 1.148-169.486 61.186-196.67 143.855 11.129-0.86 24.408-2.203 38.001-2.203 0.388 0 0.775 0.001 1.162 0.003 0.074-0.001 0.232-0.001 0.391-0.001 19.515 0 38.401 2.692 56.307 7.724-98.319 19.611-170.124 104.143-170.217 205.463-0.030 0.348-0.047 0.74-0.047 1.137s0.017 0.789 0.051 1.177c27.439-15.655 60.109-25.251 94.931-26.258-56.501 38.206-93.37 102.244-93.37 174.893 0 39.099 10.679 75.704 29.279 107.056 103.517-128.273 257.426-211.44 430.955-220.456-1.988 14.198-3.965 30.567-3.965 47.398 0 116.162 94.168 210.33 210.33 210.33 60.282 0 114.64-25.36 152.989-65.993 50.449 9.874 95.202 27.58 135.484 51.935-18.18-50.622-50.906-91.050-93.487-116.84 43.864 4.781 84.694 16.4 122.512 33.504-31.357-43.612-66.079-79.572-106.059-108.759l-1.214-0.845z" />
<glyph unicode="&#xe909;" glyph-name="iconoyoutube" d="M894.566 816.64h-765.133c-71.366-0.116-129.201-57.879-129.434-129.206v-485.808c0.116-71.437 57.996-129.317 129.422-129.434h765.144c71.437 0.116 129.317 57.996 129.434 129.422v485.797c-0.233 71.349-58.068 129.113-129.423 129.229zM417.587 316.109v256.819l256.819-128.41z" />
<glyph unicode="&#xe90a;" glyph-name="iconocorreo" horiz-adv-x="1377" d="M22.041 955.408c-11.124-0.312-20.247-8.489-22.023-19.152l-0.018-978.215c0-0.005 0-0.012 0-0.018 0-12.357 9.762-22.434 21.995-22.94l1332.623-0.002c12.68 0 22.96 10.279 22.96 22.96v978.081c-1.832 11.003-11.28 19.288-22.664 19.288-0.104 0-0.208-0.001-0.311-0.002h-1332.562zM1332.578 909.489v-927.57h-1285.74v931.243h1285.74zM1068.083 612.85l-380.212-272.761-380.212 272.761-26.633-37.654 406.845-292.047 407.763 292.047-27.552 37.654z" />
<glyph unicode="&#xe90b;" glyph-name="iconotelefono" d="M201.387 960c-23.893 0-51.2-10.24-71.68-34.133 0 0-64.853-64.853-78.507-78.507-30.72-27.307-47.787-61.44-51.2-102.4-3.413-64.853 13.653-126.293 30.72-170.667 37.547-102.4 95.573-197.973 177.493-293.547 102.4-119.467 221.867-215.040 361.813-283.307 75.093-37.547 143.36-54.613 204.8-58.027 3.413 0 10.24 0 13.653 0 51.2 0 95.573 17.067 129.707 54.613 13.653 17.067 68.267 68.267 71.68 71.68 44.373 44.373 44.373 102.4 0 146.773-37.547 37.547-78.507 78.507-129.707 129.707v0c-44.373 44.373-102.4 44.373-146.773 0l-78.507-78.507c0 0-37.547 20.48-47.787 23.893-68.267 44.373-133.12 102.4-194.56 177.493-30.72 37.547-68.267 105.813-68.267 105.813l78.507 78.507c44.373 44.373 44.373 102.4 0 150.187 0 0-116.053 119.467-126.293 126.293-20.48 23.893-47.787 34.133-75.093 34.133zM788.48-16.213c-3.413 0-6.827 0-10.24 0-58.027 3.413-116.053 20.48-187.733 54.613-133.12 64.853-249.173 157.013-348.16 273.067-78.507 92.16-133.12 184.32-170.667 279.893-20.48 58.027-27.307 105.813-23.893 150.187 3.413 30.72 13.653 54.613 34.133 71.68 13.653 13.653 71.68 71.68 81.92 78.507 27.307 27.307 58.027 23.893 81.92 0 13.653-13.653 126.293-126.293 126.293-126.293 27.307-27.307 27.307-58.027 0-85.333 0 0-58.027-58.027-78.507-78.507-13.653-13.653-17.067-27.307-10.24-47.787 17.067-37.547 40.96-78.507 75.093-119.467 64.853-78.507 133.12-139.947 204.8-187.733 10.24-6.827 47.787-23.893 54.613-27.307 17.067-10.24 34.133-6.827 47.787 6.827 23.893 23.893 78.507 78.507 78.507 78.507 10.24 10.24 23.893 20.48 40.96 20.48s30.72-10.24 40.96-20.48c40.96-40.96 85.333-85.333 129.707-129.707 27.307-27.307 27.307-58.027 0-85.333-6.827-6.827-61.44-58.027-75.093-75.093-20.48-20.48-51.2-30.72-92.16-30.72z" />
<glyph unicode="&#xe90c;" glyph-name="icon-iconoplaynegro" horiz-adv-x="1064" d="M531.86 942.371c-272.691 0-493.738-221.336-493.738-494.36s221.070-494.382 493.738-494.382 493.738 221.336 493.738 494.382-221.070 494.36-493.738 494.36v0zM702.508 421.79l-246.869-154.485c-4.996-3.131-10.657-4.685-16.363-4.685-5.151 0-10.302 1.266-14.964 3.885-9.813 5.44-15.897 15.786-15.897 27.020v308.97c0 11.234 6.083 21.581 15.897 27.020 9.791 5.484 21.803 5.129 31.305-0.821l246.869-154.485c9.014-5.662 14.52-15.542 14.52-26.199s-5.484-20.559-14.498-26.221v0z" />
<glyph unicode="&#xe90d;" glyph-name="PLACE" d="M512 957.277c-185.191 0-334.979-149.787-334.979-334.979 0 0 0 0 0 0 0-177.021 305.021-656.34 315.915-675.404 5.447-10.894 19.064-13.617 27.234-5.447 2.723 2.723 5.447 2.723 5.447 5.447 13.617 21.787 315.915 498.383 315.915 675.404 5.447 185.191-144.34 334.979-329.532 334.979 0 0 0 0 0 0v0zM514.723 39.489c-24.511 40.851-76.255 125.277-125.277 217.872-92.596 168.851-141.617 291.404-141.617 354.043 0 147.064 119.83 266.894 266.894 266.894s266.894-119.83 266.894-266.894c0-62.638-49.021-182.468-141.617-354.043-49.021-92.596-98.043-174.298-125.277-217.872v0 0zM512 755.745c-84.426-2.723-152.511-73.532-149.787-157.957s73.532-152.511 157.957-149.787c84.426 2.723 149.787 70.809 149.787 155.234s-70.809 152.511-157.957 152.511v0zM512 502.468c-54.468 2.723-98.043 49.021-95.319 103.489s49.021 98.043 103.489 95.319c51.745-2.723 95.319-46.298 95.319-98.043 2.723-51.745-40.851-98.043-92.596-98.043-5.447-2.723-8.17-2.723-10.894-2.723v0z" />
<glyph unicode="&#xe90e;" glyph-name="TIME" d="M1021.277 521.532c-2.723 8.17-10.894 13.617-19.064 10.894h-65.362c-46.298 258.723-294.128 427.574-552.851 378.553s-424.851-294.128-375.83-552.851 296.851-424.851 552.851-378.553c136.17 24.511 253.277 108.936 324.085 228.766 13.617 19.064 8.17 46.298-10.894 59.915s-46.298 8.17-59.915-10.894c0-2.723-2.723-2.723-2.723-5.447-106.213-185.191-343.149-250.553-528.34-144.34s-253.277 345.872-147.064 533.787 343.149 250.553 528.34 144.34c92.596-54.468 160.681-144.34 185.191-250.553h-62.638c-8.17 0-16.34-5.447-19.064-13.617s-2.723-16.34 2.723-21.787l108.936-128c8.17-8.17 21.787-10.894 29.957-2.723 0 0 2.723 2.723 2.723 2.723l108.936 128c5.447 5.447 5.447 13.617 0 21.787v0 0zM473.872 815.66c-24.511 0-43.574-19.064-43.574-43.574v-261.447c-32.681-24.511-40.851-70.809-16.34-106.213 13.617-19.064 35.404-29.957 59.915-29.957 10.894 0 21.787 0 29.957 5.447l149.787-87.149c5.447-2.723 13.617-5.447 21.787-5.447 24.511 0 43.574 19.064 43.574 43.574 0 16.34-8.17 29.957-21.787 38.128l-149.787 87.149c-2.723 21.787-13.617 40.851-32.681 54.468v261.447c2.723 21.787-16.34 43.574-40.851 43.574 0 0 0 0 0 0v0zM473.872 418.043c-19.064 0-32.681 13.617-32.681 32.681s13.617 32.681 32.681 32.681c19.064 0 32.681-13.617 32.681-32.681s-13.617-35.404-32.681-32.681c2.723-2.723 0-2.723 0 0v0 0z" />
<glyph unicode="&#xe90f;" glyph-name="logo" horiz-adv-x="1419" d="M1381.891 959.402h-1194.567c-25.69-0.933-46.81-19.393-51.808-43.734l-134.918-764.813c-0.604-2.465-0.95-5.294-0.95-8.205 0-19.832 16.077-35.909 35.909-35.909 0.474 0 0.947 0.009 1.416 0.027l428.245-0.002-13.765-82.79h-105.732c-25.69-0.933-46.81-19.393-51.808-43.734-0.664-2.819-1.011-5.648-1.011-8.559 0-19.832 16.077-35.909 35.909-35.909 0.474 0 0.947 0.009 1.416 0.027l547.941-0.002c25.827 0.86 47.074 19.445 52.009 43.936 0.663 2.816 1.009 5.645 1.009 8.556 0 19.832-16.077 35.909-35.909 35.909-0.474 0-0.947-0.009-1.416-0.027l-105.065 0.002 14.563 82.79h428.113c25.69 0.933 46.81 19.393 51.808 43.734l134.918 765.411c0.49 2.224 0.771 4.78 0.771 7.4 0 19.832-16.077 35.909-35.909 35.909-0.411 0-0.821-0.007-1.229-0.021zM700.821 23.977h-162.188l14.563 82.79h162.188zM1203.145 194.943h-50.073l6.583 37.305c0.604 2.465 0.95 5.294 0.95 8.205 0 19.832-16.077 35.909-35.909 35.909-0.474 0-0.947-0.009-1.416-0.027-25.622-0.931-46.742-19.391-51.74-43.732l-6.644-37.659h-72.217l6.583 37.305c0.604 2.465 0.95 5.294 0.95 8.205 0 19.832-16.077 35.909-35.909 35.909-0.474 0-0.947-0.009-1.416-0.027-25.953-0.55-47.476-19.136-52.538-43.732l-6.644-37.66h-807.151l119.696 676.881h1106.59zM580.327 553.033c0-40.655-32.958-73.613-73.613-73.613s-73.613 32.958-73.613 73.613c0 40.655 32.958 73.613 73.613 73.613s73.613-32.958 73.613-73.613zM783.012 553.033c0-40.655-32.958-73.613-73.613-73.613s-73.613 32.958-73.613 73.613c0 40.655 32.958 73.613 73.613 73.613s73.613-32.958 73.613-73.613zM985.697 553.033c0-40.655-32.958-73.613-73.613-73.613s-73.613 32.958-73.613 73.613c0 40.655 32.958 73.613 73.613 73.613s73.613-32.958 73.613-73.613z" />
<glyph unicode="&#xe910;" glyph-name="envivo" d="M96 448c0-111.2 43.4-215.6 122-294.2l-67.8-67.8c-96.8 96.6-150.2 225.2-150.2 362s53.2 265.4 150 362l67.8-67.8c-78.6-78.6-121.8-183-121.8-294.2zM873.8 810.2l-67.8-68c78.6-78.6 122-183.2 122-294.2s-43.2-215.6-121.8-294.2l67.8-67.8c96.6 96.8 150 225.4 150 362.2 0 136.6-53.4 265.4-150.2 362zM364.8 595.2l-67.8 67.8c-57.4-57.4-89-133.8-89-215s31.6-157.6 89.2-215l67.8 67.8c-39.4 39.4-61 91.6-61 147.2s21.6 107.8 60.8 147.2zM726.8 663l-67.8-67.8c39.4-39.4 61-91.6 61-147.2s-21.6-107.8-60.8-147.2l67.8-67.8c57.4 57.4 89 133.8 89 215s-31.6 157.6-89.2 215zM512 544c-53 0-96-43-96-96 0-53.2 43-96 96-96s96 42.8 96 96c0 53-43 96-96 96z" />
<glyph unicode="&#xe911;" glyph-name="brand" d="M872.448 87.36h-151.68v237.632c0 56.704-1.152 129.6-78.976 129.6-79.040 0-91.136-61.696-91.136-125.44v-241.792h-151.68v488.64h145.664v-66.56h1.92c20.352 38.4 69.888 78.912 143.808 78.912 153.6 0 182.080-101.12 182.080-232.768v-268.032zM227.712 642.88c-48.768 0-88.064 39.488-88.064 88.128 0 48.512 39.296 88 88.064 88 48.64 0 88.064-39.488 88.064-88 0-48.64-39.488-88.128-88.064-88.128zM303.744 87.36h-152.064v488.64h152.064v-488.64zM948.224 960h-872.704c-41.728 0-75.52-33.024-75.52-73.792v-876.416c0-40.768 33.792-73.792 75.52-73.792h872.64c41.728 0 75.84 33.024 75.84 73.792v876.416c0 40.768-34.112 73.792-75.84 73.792z" />
<glyph unicode="&#xe912;" glyph-name="play" d="M717.184 465.258l-282.527 193.039c-7.67 7.67-31.96 7.67-33.238-17.898v-386.077c2.557-24.29 25.568-24.29 34.517-17.898l282.527 193.039c6.392 5.114 16.619 23.011-1.278 35.795v0zM444.884 295.231v304.26l222.442-152.13-222.442-152.13zM512.639 960c-282.527 0-512.639-230.112-512.639-512.639s230.112-512.639 512.639-512.639 512.639 230.112 512.639 512.639-230.112 512.639-512.639 512.639v0zM512.639-20.534c-258.237 0-469.174 209.658-469.174 469.174s210.936 467.895 469.174 467.895 469.174-209.658 469.174-469.174-210.936-467.895-469.174-467.895v0z" />
<glyph unicode="&#xe91a;" glyph-name="musica" d="M960.388 960l-572.509-90.764c-14.739-2.327-25.6-14.739-25.6-29.479v-593.455c-34.909 31.030-83.006 50.424-135.758 50.424-107.83 0-195.491-80.679-195.491-180.752s87.661-180.752 196.267-180.752c106.279 0 193.164 79.127 195.491 176.873 0 0 0 0.776 0 0.776v519.758l512 80.679v-286.255c-34.909 31.030-83.006 50.424-135.758 50.424-107.83 0-195.491-81.455-195.491-180.752 0-100.073 87.661-180.752 195.491-180.752s195.491 81.455 195.491 180.752v633.018c0 8.533-3.879 17.067-10.861 22.497-5.43 6.206-13.964 8.533-23.273 7.758v0zM227.297-4.267c-75.248 0-135.758 54.303-135.758 120.242 0 66.715 60.509 120.242 135.758 120.242 74.473 0 135.758-54.303 135.758-120.242-0.776-66.715-61.285-120.242-135.758-120.242v0zM422.788 693.915v119.467l512 80.679v-119.467l-512-80.679zM799.806 176.485c-74.473 0-135.758 54.303-135.758 120.242 0 66.715 61.285 120.242 135.758 120.242s135.758-54.303 135.758-120.242c-0.776-65.939-61.285-120.242-135.758-120.242v0z" />
<glyph unicode="&#xe91d;" glyph-name="TV" d="M956.509 793.101h-318.504c-2.327 15.958-7.979 30.587-15.626 44.218l265.642 83.449c10.639 3.325 16.291 14.629 12.966 24.935-3.325 10.639-14.629 16.291-24.935 12.966l-281.268-88.104c-22.608 19.616-52.197 31.584-84.447 31.584s-61.839-11.969-84.447-31.584l-280.935 88.104c-10.639 3.325-21.61-2.66-24.935-12.966-3.325-10.639 2.66-21.61 12.966-24.935l265.642-83.449c-7.647-13.299-12.966-28.26-15.626-44.218h-317.839c-33.247 0-60.177-26.93-60.177-59.844v-675.242c0-33.247 26.93-60.177 60.177-60.177h9.642v-38.566c0-10.971 8.977-19.948 19.948-19.948s19.948 8.977 19.948 19.948v38.566h792.603v-38.566c0-10.971 8.977-19.948 19.948-19.948s19.948 8.977 19.948 19.948v38.566h9.642c33.247 0 60.177 26.93 60.177 60.177v675.242c-0.332 32.914-27.262 59.844-60.509 59.844v0zM510.67 862.255c42.223 0 77.797-29.59 86.774-69.153h-173.548c9.309 39.564 44.551 69.153 86.774 69.153v0zM976.79 58.016c0-10.971-8.977-20.281-20.281-20.281h-891.345c-10.971 0-20.281 8.977-20.281 20.281v675.242c0 10.971 8.977 20.281 20.281 20.281h891.678c10.971 0 20.281-8.977 20.281-20.281v-675.242zM923.595 683.719c-1.662 8.977-8.977 15.626-17.953 16.623-261.984 21.943-527.626 21.943-789.61 0-8.977-0.665-16.291-7.647-17.953-16.623-31.584-185.184-31.584-372.696 0-557.881 1.662-8.977 8.977-15.626 17.953-16.623 130.992-10.971 262.982-16.623 394.639-16.623 131.99 0 263.647 5.652 394.639 16.623 8.977 0.665 16.291 7.647 17.953 16.623 31.917 185.184 31.917 373.029 0.332 557.881v0zM886.691 147.782c-249.683-20.281-502.358-20.281-752.042 0-27.595 170.556-27.595 343.439 0 513.995 249.683 20.281 502.358 20.281 752.042 0 27.595-170.556 27.595-343.106 0-513.995v0zM854.774 510.836c-10.971-0.665-19.283-9.974-18.951-20.945 3.99-69.818 2.992-140.966-2.66-210.784-0.997-10.971 7.314-20.613 18.286-21.61 0.665 0 0.997 0 1.662 0 10.306 0 18.951 7.979 19.948 18.286 5.984 71.813 6.982 144.623 2.992 216.436-0.997 10.971-10.306 19.283-21.278 18.618v0zM851.117 535.106c0.665 0 1.33 0 1.995 0 10.971 0.997 18.951 10.971 17.953 21.943-1.995 20.613-4.322 41.226-7.314 61.506-1.33 10.971-11.636 18.618-22.608 16.956-10.971-1.33-18.618-11.636-16.956-22.608 2.66-19.948 4.987-40.229 6.982-60.177 0.997-9.974 9.642-17.621 19.948-17.621v0zM951.855 92.925c-15.294 9.974-35.574-4.655-30.255-22.275 2.327-7.979 9.642-13.631 17.953-13.964 8.644-0.332 16.956 4.987 19.616 13.299 3.657 8.312 0.332 17.953-7.314 22.94v0z" />
<glyph unicode="&#xe91e;" glyph-name="artes" horiz-adv-x="1142" d="M296.938 279.351c-16.253 12.835-36.65 19.911-57.401 19.911-28.186 0-54.443-12.511-72.034-34.374-15.382-19.128-22.34-43.061-19.605-67.387 2.753-24.357 14.905-46.203 34.238-61.466 16.257-12.857 36.632-19.933 57.383-19.933 28.226 0 54.482 12.546 72.052 34.427 15.369 19.093 22.327 42.99 19.592 67.3-2.735 24.375-14.892 46.22-34.225 61.523v0zM278.839 176.854c-9.575-11.916-23.898-18.751-39.319-18.751-11.487 0-22.322 3.759-31.333 10.888-10.476 8.271-17.058 20.069-18.546 33.232-1.47 13.093 2.289 26.016 10.581 36.321 9.57 11.899 23.915 18.721 39.315 18.721 11.505 0 22.362-3.763 31.35-10.875 10.481-8.288 17.045-20.086 18.533-33.245 1.47-13.098-2.276-25.985-10.581-36.291v0zM666.326 494.478c13.846 0 27.245 3.041 39.844 9.041 22.274 10.669 39.008 29.298 47.095 52.495 8.069 23.062 6.617 47.865-4.070 69.829-15.264 31.49-47.896 51.83-83.093 51.83-13.898 0-27.315-3.041-39.914-9.058-22.257-10.616-39.008-29.25-47.113-52.447-8.069-23.075-6.634-47.879 4.070-69.864 15.334-31.486 47.966-51.826 83.18-51.826v0zM618.737 602.287c4.376 12.568 13.452 22.651 25.539 28.414 6.905 3.3 14.235 4.954 21.81 4.954 19.228 0 37.008-11.041 45.314-28.169 5.763-11.846 6.547-25.197 2.206-37.625-4.376-12.546-13.47-22.651-25.539-28.427-6.87-3.282-14.205-4.941-21.758-4.941-19.233 0-37.061 11.080-45.384 28.208-5.763 11.829-6.533 25.176-2.188 37.586v0zM437.725 642.923c6.752-1.523 13.675-2.293 20.55-2.293 43.244 0 80.187 29.25 89.863 71.164 5.418 23.762 1.247 48.237-11.763 68.906-13.111 20.821-33.586 35.297-57.672 40.75-6.787 1.558-13.728 2.328-20.633 2.328-43.214 0-80.121-29.267-89.762-71.181-5.47-23.745-1.317-48.22 11.675-68.906 13.128-20.856 33.643-35.332 57.742-40.767v0zM409.25 743.179c5.229 22.716 25.298 38.597 48.819 38.597 3.777 0 7.588-0.446 11.334-1.282 13.128-2.976 24.287-10.853 31.416-22.169 7.028-11.163 9.282-24.362 6.358-37.131-5.142-22.34-25.709-38.544-48.903-38.544-3.763 0-7.557 0.424-11.299 1.265-13.146 2.958-24.292 10.818-31.42 22.134-7.010 11.163-9.247 24.344-6.306 37.131v0zM270.822 590.529c19.298 15.299 31.433 37.144 34.168 61.523 2.735 24.287-4.205 48.202-19.57 67.33-17.627 21.845-43.901 34.378-72.104 34.378-20.716 0-41.096-7.063-57.348-19.898-19.316-15.251-31.455-37.061-34.208-61.418-2.753-24.344 4.205-48.277 19.609-67.453 17.587-21.863 43.879-34.413 72.1-34.413 20.751 0.018 41.113 7.094 57.353 19.95v0zM174.102 631.331c-8.323 10.358-12.087 23.281-10.599 36.396 1.488 13.141 8.052 24.922 18.498 33.179 8.993 7.094 19.828 10.835 31.315 10.835 15.434 0 29.814-6.818 39.385-18.681 8.275-10.328 12.034-23.215 10.546-36.308-1.47-13.181-8.052-25.009-18.511-33.302-8.975-7.094-19.78-10.853-31.25-10.853-15.452 0-29.81 6.835-39.385 18.734v0zM1129.879 796.068c-3.623 3.676-10.1 8.034-20.322 8.034-11.986 0-43.813 0-237.148-164.514-3.877-3.3-7.811-6.652-11.741-10.034-34.549 90.121-95.232 170.443-173.437 228.562-89.674 66.617-196.446 101.849-308.789 101.884h-0.083c-75.794 0-167.949-26.497-240.496-69.146-88.922-52.272-137.881-122.189-137.864-196.84 0.035-90.134 50.872-127.842 91.727-158.134 33.298-24.72 59.606-44.225 59.624-86.974 0.018-42.772-26.291-62.258-59.571-86.944-40.837-30.274-91.679-67.947-91.644-158.099 0.018-74.651 49.008-144.585 137.951-196.91 72.599-42.697 164.803-69.247 240.614-69.264h0.153c137.61 0 266.958 53.112 364.242 149.557 96.050 95.214 149.469 221.42 150.869 355.897 32.615 37.113 64.206 73.999 93.061 108.772 49.349 59.453 87.281 108.526 112.784 145.828 33.761 49.401 48.548 79.71 30.068 98.326v0zM713.522 117.077c-89.368-88.602-208.205-137.369-334.669-137.369h-0.136c-135.505 0.035-336.528 94.169-336.563 224.168-0.035 68.993 36.238 95.884 74.647 124.346 35.884 26.615 76.568 56.784 76.568 120.683-0.035 63.912-40.719 94.085-76.634 120.718-38.413 28.493-74.704 55.401-74.717 124.39-0.018 79.833 73.382 134.905 117.143 160.632 65.453 38.479 151.486 63.352 219.197 63.352h0.083c103.231-0.035 201.352-32.409 283.727-93.608 75.986-56.443 133.986-135.689 164.531-224.221-91.11-79.557-189.777-171.284-263.247-244.99-122.035-15.798-138.669-97.131-150.821-156.873-10.341-50.889-17.058-75.47-56.342-78.634-9.675-0.77-17.557-8.065-19.062-17.657-1.501-9.588 3.746-18.975 12.721-22.681 2.512-1.046 62.582-25.591 132.752-25.591h0.018c48.903 0 90.852 11.864 124.683 35.232 41.673 28.803 69.93 74.476 84.134 135.724 48.019 48.566 102.873 107.131 157.114 167.472-12.498-103.879-59.37-199.982-135.129-275.093v0zM649.334 228.667c-22.257-88.208-78.257-132.923-166.614-132.91h-0.018c-23.303 0-45.607 3.181-64.376 7.129 22.41 22.856 29.398 57.248 35.468 87.027 11.54 56.753 22.462 110.443 111.76 123.195l83.78-84.441zM939.402 560.408c-83.263-99.197-184.053-210.598-267.028-295.315l-12.835 12.958-56.683 57.108c75.229 74.892 171.726 164.19 261.776 242.325 10.494 9.111 20.922 18.104 31.197 26.873 104.496 89.11 159.25 127.899 187.178 144.769-16.682-28.103-55.090-83.281-143.605-188.718v0z" />
<glyph unicode="&#xe91f;" glyph-name="trend" horiz-adv-x="1212" d="M43.185-22.946c10.087-7.45 49.011-28.189 81.885 16.408l222.573 349.266 235.532-243.983c12.394-12.7 29.414-19.527 46.692-17.337 17.031 1.86 32.591 11.429 42.69 26.612l390.65 601.618 14.124-201.257c3.46-51.094 48.163-59.463 63.158-58.215 32.274 2.778 56.791 32.815 54.19 67.808l-24.788 353.916c-2.307 34.675-30.555 61.005-63.158 58.203l-329.516-26.624c-32.297-2.483-56.803-32.827-54.201-67.819 2.295-34.675 30.261-60.675 63.135-58.203l187.404 15.16-358.094-551.124-236.109 244.607c-12.394 12.994-29.696 19.491-46.692 17.337-17.302-1.86-32.886-11.758-42.667-27.236l-262.097-411.201c-18.432-28.79-11.523-68.102 15.289-87.935v0z" />
<glyph unicode="&#xe920;" glyph-name="creditos-foto" horiz-adv-x="1249" d="M1149.738 746.137h-177.091l-83.066 207.75h-526.657l-83.082-207.75h-27.48v103.867h-124.653v-103.867h-24.958c-54.975 0-99.71-44.735-99.71-99.71v-610.014c0-55.388 45.025-100.413 100.413-100.413h1045.58c55.388 0 100.413 45.025 100.413 100.413v610.014c0 54.975-44.735 99.71-99.71 99.71v0zM169.174 808.417h41.602v-62.265h-41.602v62.265zM1207.861 36.413c0-32.569-26.349-58.949-58.811-58.949h-1045.596c-32.462 0-58.811 26.486-58.811 58.949v610.014c0 32.065 26.043 58.108 58.108 58.108h205.197l83.066 207.734h470.475l83.066-207.734h205.197c32.065 0 58.108-26.043 58.108-58.108v-610.014zM626.245 766.938c-206.206 0-373.867-167.768-373.867-374.005 0-206.099 167.676-373.867 373.867-373.867s373.867 167.768 373.867 373.867c0.015 206.237-167.661 374.005-373.867 374.005v0zM626.245 60.668c-183.296 0-332.403 149.107-332.403 332.28 0 183.296 149.107 332.403 332.403 332.403s332.403-149.107 332.403-332.403c0-183.174-149.091-332.28-332.403-332.28v0zM626.245 642.27c-137.445 0-249.336-111.784-249.336-249.336 0-137.445 111.891-249.199 249.336-249.199s249.336 111.769 249.336 249.199c0 137.552-111.891 249.336-249.336 249.336v0zM626.245 185.199c-114.52 0-207.734 93.215-207.734 207.734 0 114.642 93.215 207.734 207.734 207.734s207.734-93.092 207.734-207.734c0-114.505-93.215-207.734-207.734-207.734v0zM1083.316 663.071c-45.851 0-83.204-37.338-83.204-83.066 0-45.851 37.338-83.204 83.204-83.204 45.728 0 83.066 37.338 83.066 83.204 0 45.728-37.338 83.066-83.066 83.066v0zM1083.316 538.402c-22.925 0-41.602 18.677-41.602 41.602 0 22.803 18.677 41.464 41.602 41.464 22.803 0 41.464-18.677 41.464-41.464 0.015-22.925-18.661-41.602-41.464-41.602v0z" />
<glyph unicode="&#xe921;" glyph-name="mailico" horiz-adv-x="1365" d="M682.738 362.872l-682.417 511.84c0 47.347 38.049 85.289 85.289 85.289h1194.364c47.24 0 85.289-37.942 85.289-85.289l-682.524-511.84zM682.738 209.501l682.524 511.947v-699.838c0-47.347-38.049-85.289-85.289-85.289h-1194.364c-47.24 0-85.289 37.942-85.289 85.289v699.732l682.417-511.84z" />
<glyph unicode="&#xe922;" glyph-name="facebook" horiz-adv-x="1021" d="M1021.968 895.756v-894.886c0-34.936-28.918-63.932-63.932-63.932h-255.726v397.501h127.863l21.493 147.324h-149.356v115.827c0 41.97 21.493 65.886 63.932 65.886h95.897v132.865c0 0-42.986 6.956-104.885 6.956-140.29 0-211.256-77.922-211.256-194.296v-127.316h-127.863v-147.324h127.863v-397.501h-482.848c-34.936 0-63.932 28.996-63.932 63.932v894.886c0 34.936 28.918 63.932 63.932 63.932h894.886c34.936 0.078 63.932-28.918 63.932-63.853z" />
<glyph unicode="&#xe968;" glyph-name="redo2" d="M576 711.628v248.372l384-384-384-384v253.824c-446.75 10.482-427.588-303.792-313.86-509.824-280.712 303.414-221.1 789.57 313.86 775.628z" />
<glyph unicode="&#xe96b;" glyph-name="bubble" d="M512 896c282.77 0 512-186.25 512-416 0-229.752-229.23-416-512-416-27.156 0-53.81 1.734-79.824 5.044-109.978-109.978-241.25-129.7-368.176-132.596v26.916c68.536 33.578 128 94.74 128 164.636 0 9.754-0.758 19.33-2.164 28.696-115.796 76.264-189.836 192.754-189.836 323.304 0 229.75 229.23 416 512 416z" />
<glyph unicode="&#xe9da;" glyph-name="heart" d="M755.188 896c-107.63 0-200.258-87.554-243.164-179-42.938 91.444-135.578 179-243.216 179-148.382 0-268.808-120.44-268.808-268.832 0-301.846 304.5-380.994 512.022-679.418 196.154 296.576 511.978 387.206 511.978 679.418 0 148.392-120.43 268.832-268.812 268.832z" />
<glyph unicode="&#xea1c;" glyph-name="play3" d="M192 832l640-384-640-384z" />
<glyph unicode="&#xea1d;" glyph-name="pause2" d="M128 832h320v-768h-320zM576 832h320v-768h-320z" />
<glyph unicode="&#xea26;" glyph-name="volume-high" horiz-adv-x="1088" d="M890.040 37.96c-12.286 0-24.566 4.686-33.942 14.056-18.744 18.746-18.744 49.136 0 67.882 87.638 87.642 135.904 204.16 135.904 328.1 0 123.938-48.266 240.458-135.904 328.098-18.744 18.746-18.744 49.138 0 67.882s49.138 18.744 67.882 0c105.77-105.772 164.022-246.4 164.022-395.98s-58.252-290.208-164.022-395.98c-9.372-9.372-21.656-14.058-33.94-14.058zM719.53 128.47c-12.286 0-24.566 4.686-33.942 14.056-18.744 18.744-18.744 49.136 0 67.882 131.006 131.006 131.006 344.17 0 475.176-18.744 18.746-18.744 49.138 0 67.882 18.744 18.742 49.138 18.744 67.882 0 81.594-81.59 126.53-190.074 126.53-305.466 0-115.39-44.936-223.876-126.53-305.47-9.372-9.374-21.656-14.060-33.94-14.060v0zM549.020 218.98c-12.286 0-24.568 4.686-33.942 14.058-18.746 18.746-18.746 49.134 0 67.88 81.1 81.1 81.1 213.058 0 294.156-18.746 18.746-18.746 49.138 0 67.882s49.136 18.744 67.882 0c118.53-118.53 118.53-311.392 0-429.922-9.372-9.368-21.656-14.054-33.94-14.054zM416.006 0c-8.328 0-16.512 3.25-22.634 9.374l-246.626 246.626h-114.746c-17.672 0-32 14.326-32 32v320c0 17.672 14.328 32 32 32h114.746l246.626 246.628c9.154 9.154 22.916 11.89 34.874 6.936 11.958-4.952 19.754-16.622 19.754-29.564v-832c0-12.944-7.796-24.612-19.754-29.564-3.958-1.64-8.118-2.436-12.24-2.436z" />
<glyph unicode="&#xea7a;" glyph-name="paragraph-justify" d="M0 896h1024v-128h-1024zM0 704h1024v-128h-1024zM0 512h1024v-128h-1024zM0 320h1024v-128h-1024zM0 128h1024v-128h-1024z" />
<glyph unicode="&#xea82;" glyph-name="share2" d="M864 256c-45.16 0-85.92-18.738-115.012-48.83l-431.004 215.502c1.314 8.252 2.016 16.706 2.016 25.328s-0.702 17.076-2.016 25.326l431.004 215.502c29.092-30.090 69.852-48.828 115.012-48.828 88.366 0 160 71.634 160 160s-71.634 160-160 160-160-71.634-160-160c0-8.622 0.704-17.076 2.016-25.326l-431.004-215.504c-29.092 30.090-69.852 48.83-115.012 48.83-88.366 0-160-71.636-160-160 0-88.368 71.634-160 160-160 45.16 0 85.92 18.738 115.012 48.828l431.004-215.502c-1.312-8.25-2.016-16.704-2.016-25.326 0-88.368 71.634-160 160-160s160 71.632 160 160c0 88.364-71.634 160-160 160z" />
</font>
</defs>
</svg>
